<svg viewBox="0 0 16 16" class="page" style="width: 19.8px; height: 19.8px; display: block; flex-shrink: 0; backface-visibility: hidden; fill: currentColor;"><path d="M10.516 8.916H5.327a.417.417 0 00-.307.123.387.387 0 00-.124.294.417.417 0 00.43.424h5.19a.387.387 0 00.294-.123.41.41 0 00.123-.301.387.387 0 00-.123-.294.387.387 0 00-.294-.123zm0 2.386H5.327a.417.417 0 00-.43.43c0 .114.04.212.123.294a.43.43 0 00.307.117h5.189a.399.399 0 00.294-.117.401.401 0 00.123-.294.417.417 0 00-.123-.307.387.387 0 00-.294-.123zM4.37 15.328h7.26c.706 0 1.235-.18 1.586-.54.355-.355.533-.889.533-1.6V6.981a4.86 4.86 0 00-.048-.745 1.562 1.562 0 00-.191-.547 2.466 2.466 0 00-.41-.533L9.333 1.321a2.25 2.25 0 00-.506-.403 1.559 1.559 0 00-.54-.191 3.618 3.618 0 00-.67-.055H4.37c-.706 0-1.237.18-1.593.54-.35.36-.526.895-.526 1.606v10.37c0 .716.175 1.252.526 1.607.356.355.887.533 1.593.533zm.048-1.1c-.35 0-.618-.092-.8-.274-.178-.182-.266-.444-.266-.786V2.838c0-.336.088-.598.266-.785.182-.187.451-.28.807-.28h3.042v3.971c0 .429.107.75.321.964.214.214.536.321.964.321h3.896v6.139c0 .342-.09.604-.273.786-.178.182-.444.273-.8.273H4.418zm4.457-8.23c-.137 0-.235-.03-.294-.09-.055-.059-.082-.157-.082-.294v-3.63l3.938 4.013H8.875z"></path></svg>